# xmcd
#
# Track frame offsets: 
#        150
#        25591
#        43959
#        80105
#        113221
#        138721
#        166394
#        189225
#
# Disc length: 2939 seconds
#
# Revision: 2
# Processed by: cddbd v1.5.2PL0 Copyright (c) Steve Scherf et al.
# Submitted via: ExactAudioCopy v1.0b1
#
DISCID=6a0b7908
DTITLE=David Hazeltine Trio - Pearls
DYEAR=2001
DGENRE=Jazz
TTITLE0=What Kind Of Fool Am I
TTITLE1=My Old Flame
TTITLE2=The Maquerade Is Over
TTITLE3=His Lordship
TTITLE4=Somewhere
TTITLE5=Darn That Dream
TTITLE6=Pearls
TTITLE7=Close Enough For Love
EXTD=YEAR: 2001
EXTT0=
EXTT1=
EXTT2=
EXTT3=
EXTT4=
EXTT5=
EXTT6=
EXTT7=
PLAYORDER=
